# xmcd
#
# Track frame offsets:
#	150
#	10102
#	24157
#	34732
#	43632
#	55900
#	66037
#	77475
#	88102
#	98927
#	108252
#	119107
#	132117
#	143587
#	154997
#	165452
#	176642
#	187735
#
# Disc length: 2677 seconds
#
# Revision: 1
# Processed by: cddbd v1.4PL0 Copyright (c) Steve Scherf et al.
# Submitted via: CDmax 1.8
#
DISCID=df0a7312
DTITLE=Wynn Stewart - Very Best of: 1958 - 1962
DYEAR=2001
DGENRE=Country
TTITLE0=Come On
TTITLE1=The Long Black Limousine
TTITLE2=How the Other Half Lives
TTITLE3=Above And Beyond (The Call of Love)
TTITLE4=Wishful Thinking
TTITLE5=Wrong Company
TTITLE6=Heartaches for A Dime
TTITLE7=Playboy
TTITLE8=Big City
TTITLE9=If You See My Baby
TTITLE10=Big, Big Love
TTITLE11=I Don't Feel At Home
TTITLE12=One Way To Go
TTITLE13=Falling For You
TTITLE14=Three Cheers For The Loser
TTITLE15=Couples Only
TTITLE16=Another Day, Another Dollar
TTITLE17=Don't Look Back
EXTD=
EXTT0=
EXTT1=
EXTT2=
EXTT3=
EXTT4=
EXTT5=
EXTT6=
EXTT7=
EXTT8=
EXTT9=
EXTT10=
EXTT11=
EXTT12=
EXTT13=
EXTT14=
EXTT15=
EXTT16=
EXTT17=
PLAYORDER=
